<svg width="113" height="40" viewBox="0 0 113 40" fill="none" xmlns="http://www.w3.org/2000/svg">
<g clip-path="url(#clip0)">
<path d="M36.944 9.52569L32.6294 20.2201L34.4433 9.52569H29.7218L26.7183 32.2556H31.8148L41.7877 9.52569H36.944ZM43.819 22.6569H47.9162L49.1044 18.6236H45.0072L46.4766 13.6236H50.6662L51.885 9.52639H42.9447L36.2537 32.2556H45.0391L46.6023 27.941H42.2565L43.819 22.6569ZM17.1259 36.9104C14.7552 36.9133 12.4214 36.3225 10.3377 35.1917L9.13218 37.6833C11.591 38.999 14.3373 39.6856 17.1259 39.6819C22.5836 39.6819 27.4433 37.0993 30.5794 33.0778H26.8537C24.2142 35.5422 20.7371 36.9121 17.1259 36.9104ZM20.1537 28.2944V30.6431L25.9315 26.2069L20.3398 20.9507V23.2243H14.3745L20.3391 9.05764V19.4951L25.169 24.0639L25.2898 0H20.0044L0.69399 39.8743L7.10649 40L12.2912 28.2944H20.1537ZM4.63149 29.5771C3.3873 27.3759 2.73551 24.8896 2.73982 22.3611C2.73982 15.0458 8.07732 8.99167 15.0315 7.96458L16.4412 5.05417C7.29885 5.41667 -0.000454882 13.0264 -0.000454882 22.3611C-0.00750448 25.9578 1.10159 29.468 3.17385 32.4076L4.63149 29.5771ZM25.16 32.2556V27.9611L20.1482 32.2556H25.16ZM96.437 21.4688C97.594 21.4688 98.2502 20.7813 98.4377 20.1243L100.72 12.4021C101.158 10.9014 100.502 9.52569 98.469 9.52569H89.8711L83.1808 32.2556H87.903L90.7502 22.5632H92.3134C92.8759 22.5632 92.9384 22.9694 92.8134 23.3451L90.1877 32.2556H94.91L97.3481 23.9701C97.8468 22.3444 97.1558 21.5972 96.437 21.4688ZM95.6863 14.1215L94.4363 18.3424C94.2176 19.0306 93.8113 19.2181 93.3426 19.2181H91.7169L93.4988 13.184H94.9683C95.6863 13.184 95.8738 13.5278 95.6863 14.1215ZM60.1384 9.52569L57.5447 18.3111L57.3884 9.52569H53.3551L46.6662 32.2556H51.1065L53.8259 23.1882L54.2329 32.2556H58.0134L64.7044 9.52569H60.1384ZM107.252 13.6229H111.379L112.599 9.52569H105.314C104.188 9.52569 103.063 9.83819 102.531 11.4333L99.9363 20.2528C99.4676 21.9104 99.9363 23.0042 101.906 23.0042H104.406C104.688 23.0042 104.688 23.1292 104.626 23.3174L103.531 27.1625C103.344 27.7257 103.219 27.9444 102.343 27.9444H98.4037L97.1225 32.259H104.845C105.817 32.259 106.845 31.7896 107.095 30.8833L109.691 22.0639C110.347 19.8417 109.284 18.9062 107.596 18.9062H105.069L106.413 14.2785C106.566 13.7778 106.91 13.6215 107.254 13.6215L107.252 13.6229ZM69.8301 18.6229L68.6419 22.6563H69.6107L67.8926 28.4722H66.2954C65.6704 28.4722 65.3891 28.2222 65.5766 27.5653L69.4843 14.309C69.6412 13.7465 69.8912 13.6215 70.3912 13.6215H74.987L76.2065 9.52431H68.6745C67.1738 9.52431 66.1419 9.9625 65.6419 11.6507L60.8273 28.0347C59.9516 31.0361 61.7336 32.2556 63.86 32.2556H66.7676L66.2669 34.0375L71.5197 31.3799L75.2697 18.6236L69.8301 18.6229ZM80.3343 22.6563H84.4315L85.6197 18.6229H81.5225L82.9919 13.6229H87.1815L88.4009 9.52569H79.4606L72.7697 32.2556H81.5551L83.1183 27.941H78.7725L80.3343 22.6563Z" fill="#FAFBFF"/>
</g>
<defs>
<clipPath id="clip0">
<rect width="112.601" height="40" fill="white"/>
</clipPath>
</defs>
</svg>
