<svg width="46" height="49" viewBox="0 0 46 49" fill="none" xmlns="http://www.w3.org/2000/svg">
<path d="M2.66724 48H36.7318" stroke="#4C241D" stroke-width="1.32719" stroke-linecap="round"/>
<path d="M33.6593 5.6694L37.9914 7.3258C38.33 7.45527 38.6515 7.62587 38.9484 7.83376L41.0985 9.33882C42.0964 10.0374 43.4748 9.76815 44.1366 8.74546C44.8023 7.71662 44.4748 6.34029 43.417 5.72159L35.7775 1.2532C34.5977 0.563134 33.0815 0.968416 32.4034 2.15512C31.6556 3.4638 32.2514 5.1311 33.6593 5.6694Z" stroke="#4C241D" stroke-width="1.32719"/>
<path d="M37.3815 8.80761L17.2661 28.3135L21.2477 32.295L41.03 12.5127C42.0672 11.4755 42.0417 9.78613 40.9735 8.78083C39.9615 7.82831 38.3793 7.8401 37.3815 8.80761Z" fill="#B5A19C" stroke="#4C241D" stroke-width="1.32719"/>
<path d="M36.51 9.73282L19.6989 26.1015L23.6805 29.8619L40.2703 13.272L36.51 9.73282Z" fill="#BF7E68" stroke="#4C241D" stroke-width="1.32719"/>
<path d="M22.5749 24.3319L25.8929 27.4287" stroke="#4C241D" stroke-width="1.32719" stroke-linecap="square"/>
<path d="M24.3447 21.6775L27.6627 24.7742" stroke="#4C241D" stroke-width="1.32719" stroke-linecap="square"/>
<path d="M26.5565 19.9079L29.8745 23.0047" stroke="#4C241D" stroke-width="1.32719" stroke-linecap="square"/>
<path d="M28.7679 18.1384L32.0859 21.2351" stroke="#4C241D" stroke-width="1.32719" stroke-linecap="square"/>
<path d="M30.5382 15.9264L33.8562 19.0232" stroke="#4C241D" stroke-width="1.32719" stroke-linecap="square"/>
<path d="M32.5286 13.9356L35.6254 16.8111" stroke="#4C241D" stroke-width="1.32719" stroke-linecap="square"/>
<path d="M34.5194 11.9448L37.8374 15.0416" stroke="#4C241D" stroke-width="1.32719" stroke-linecap="square"/>
<path d="M12.6597 24.0727L4.17829 32.5542C3.83275 32.8997 3.83275 33.4599 4.17829 33.8055L15.3282 44.9553C15.6682 45.2953 16.2174 45.3016 16.5651 44.9694L25.2393 36.6807C25.5982 36.3377 25.6047 35.7665 25.2536 35.4154L13.911 24.0727C13.5655 23.7272 13.0053 23.7272 12.6597 24.0727Z" fill="#9CA5B5" stroke="#4C241D" stroke-width="1.32719"/>
<path d="M19.5664 47.2385L16.1592 45.3457L25.6707 36.2765L27.3718 39.6787C27.5443 40.0237 27.4734 40.4407 27.1967 40.7093L20.6123 47.1C20.3323 47.3717 19.9074 47.428 19.5664 47.2385Z" fill="#4F596B" stroke="#4C241D" stroke-width="1.32719"/>
<circle cx="14.6116" cy="34.507" r="3.76037" fill="#DCE0ED" stroke="#4C241D" stroke-width="1.32719"/>
<path d="M9.41576 21.9402L13.0639 23.6683L3.77358 32.9586L1.70927 29.5807C1.49358 29.2277 1.5512 28.7724 1.84801 28.4844L8.42076 22.1049C8.68561 21.8479 9.0822 21.7822 9.41576 21.9402Z" fill="#4F596B" stroke="#4C241D" stroke-width="1.32719"/>
</svg>
